<svg viewBox="0 0 96 96" xmlns="http://www.w3.org/2000/svg" xmlns:xlink="http://www.w3.org/1999/xlink" id="Icons_Flask" overflow="hidden"><circle cx="50" cy="7" r="3"  fill="#10b981"/><circle cx="55" cy="16" r="3" fill="#10b981"/><circle cx="44" cy="14" r="3" fill="#10b981"/><circle cx="46" cy="25" r="4" fill="#10b981"/><path d="M67.5 83.6 56 57.6 56 40C56 36.4 58.9 34.9 59 34.8 60 34.3 60.4 33.1 59.9 32.1 59.5 31.4 58.8 31 58 31L58 31 38 31 38 31C37.2 31 36.5 31.4 36.1 32.1 35.6 33.1 36 34.3 37 34.8 37 34.8 40 36.4 40 40L40 57.6 28.5 83.6C27.7 85.5 27.9 87.6 29 89.3 30.1 91 32 92 34 92L62 92C64 92 65.9 91 67 89.3 68.1 87.6 68.3 85.5 67.5 83.6ZM52 40 52 44 44 44 44 40C44 37.9 43.4 36.3 42.7 35L53.4 35C52.6 36.3 52 37.9 52 40Z" fill="#10b981"/></svg>