<svg width="30" height="30" viewBox="0 0 50 50" fill="none" xmlns="http://www.w3.org/2000/svg">
<g clip-path="url(#clip0)">
<path d="M37.1355 15.8753L35.5701 14.6053L34.8411 16.4862C34.8271 16.522 33.4267 20.0629 31.2763 19.4178C30.8002 19.275 30.4808 18.9995 30.2714 18.5507C29.7373 17.4067 29.9645 15.3361 30.8501 13.2755C32.0746 10.4262 31.5384 7.44059 29.2994 4.64123C27.7245 2.67222 25.8323 1.4802 25.7525 1.43036L23.4598 0L23.5109 2.70193C23.5118 2.7502 23.5612 7.55053 20.0069 9.3108C17.8293 10.3893 16.2704 12.173 15.6173 14.3334C15.0065 16.3545 15.263 18.5643 16.3212 20.3961C16.7544 21.146 16.8857 21.7819 16.7115 22.2864C16.4626 23.0071 15.6586 23.3781 15.418 23.4747C12.877 24.4952 11.2136 21.0882 11.1464 20.9476L9.98733 18.4737L8.56693 20.8074C6.74284 23.8041 5.77881 27.2528 5.77881 30.7807C5.77881 41.3011 14.2767 49.8729 24.7691 49.9972C24.8457 49.9991 24.9225 50.0001 24.9997 50.0001H24.9997H25C35.5986 50.0001 44.2212 41.3782 44.2212 30.7807C44.2212 24.9776 41.6387 19.5448 37.1355 15.8753ZM18.9885 41.0576L18.9884 41.0395C18.9741 39.8728 19.1963 38.6217 19.6505 37.3071L23.2634 38.3631L23.2999 36.4461C23.3556 33.51 25.0113 31.7076 26.335 30.7325C26.6744 32.2093 27.2036 33.5261 27.9344 34.7205C28.7676 36.0801 29.5567 37.2327 30.2846 38.2744C30.7522 38.945 31.0174 39.9575 31.0121 41.0521V41.0592C31.0121 42.6642 30.3867 44.1735 29.2511 45.3091C28.1165 46.4436 26.6067 47.0684 24.9997 47.0684C24.9996 47.0684 24.9995 47.0684 24.9993 47.0684C21.6861 47.0681 18.9897 44.3728 18.9885 41.0576ZM33.0679 44.9262C33.6402 43.7353 33.9434 42.4222 33.9438 41.0622C33.9513 39.3539 33.5059 37.7684 32.6886 36.5963C31.8768 35.4343 31.1827 34.41 30.4345 33.1892C29.6002 31.8259 29.0985 30.2191 28.901 28.2773L28.7078 26.3792L26.9236 27.0549C26.7563 27.1182 25.2448 27.7142 23.6956 29.1195C22.0527 30.6098 20.9922 32.4527 20.5718 34.522L17.9515 33.7562L17.4343 34.9359C16.4979 37.0714 16.0345 39.1339 16.0569 41.0667C16.0582 42.45 16.3754 43.7607 16.94 44.9306C12.0282 42.1225 8.71039 36.8318 8.71039 30.7805C8.71039 28.5792 9.15287 26.4148 10.0026 24.4137C10.1328 24.5578 10.2714 24.7016 10.4183 24.8431C12.2138 26.5714 14.3773 27.0515 16.5101 26.1952C17.9509 25.6168 19.0343 24.5408 19.4824 23.2434C19.8015 22.3196 19.9525 20.8213 18.8596 18.9295C18.1953 17.7797 18.0404 16.4486 18.4234 15.1816C18.8396 13.8049 19.8639 12.6529 21.3079 11.9378C24.3467 10.4328 25.5889 7.6074 26.0956 5.46415C26.4154 5.77862 26.7439 6.13482 27.0527 6.52649C28.5589 8.43619 28.9302 10.3174 28.1565 12.1181C26.9189 14.998 26.7163 17.8662 27.6147 19.7908C28.1791 21 29.1539 21.842 30.4337 22.2259C32.4454 22.8295 34.4129 22.1269 35.9739 20.2477C36.2183 19.9536 36.4341 19.654 36.6219 19.3662C39.6076 22.4001 41.2894 26.4699 41.2894 30.7805C41.2895 36.8287 37.9754 42.1169 33.0679 44.9262Z" fill="#FF7070"/>
</g>
<defs>
<clipPath id="clip0">
<rect width="50" height="50" fill="white"/>
</clipPath>
</defs>
</svg>
