<svg viewBox="0 0 96 96" xmlns="http://www.w3.org/2000/svg" xmlns:xlink="http://www.w3.org/1999/xlink" id="Icons_Mathematics" overflow="hidden"><path d="M10 11 10 83 84 83 84 11ZM78 44 50 44 50 17 78 17ZM44 17 44 44 16 44 16 17ZM16 50 44 50 44 77 16 77ZM50 77 50 50 78 50 78 77Z"  fill="#10b981"/><path d="M39 28 32 28 32 21 28 21 28 28 21 28 21 32 28 32 28 39 32 39 32 32 39 32 39 28Z"  fill="#10b981"/><path d="M37.78 58.05 34.95 55.22 30 60.17 25.05 55.22 22.22 58.05 27.17 63 22.22 67.95 25.05 70.78 30 65.83 34.95 70.78 37.78 67.95 32.83 63 37.78 58.05Z"  fill="#10b981"/><rect x="62" y="21" width="4" height="18" transform="matrix(6.12323e-17 -1 1 6.12323e-17 34 94)"  fill="#10b981"/><rect x="62" y="55" width="4" height="18" transform="matrix(6.12323e-17 -1 1 6.12323e-17 0 128)"  fill="#10b981"/><circle cx="64" cy="58" r="2"  fill="#10b981"/><circle cx="64" cy="70" r="2"  fill="#10b981"/></svg>