<svg width="50" height="50" viewBox="0 0 50 50" fill="none" xmlns="http://www.w3.org/2000/svg">
<path d="M41.1676 15.9903C40.7805 15.6913 40.3234 15.5227 39.8376 15.4992C39.799 15.4945 39.7595 15.4921 39.7196 15.4921H30.8373L37.4222 3.51464C37.7271 2.95956 37.7975 2.31894 37.6204 1.71084C37.4436 1.10273 37.0404 0.599999 36.4851 0.295117C36.1623 0.117969 35.801 0.0180664 35.4332 0.0040039C35.4038 0.00136718 35.3742 0 35.3441 0H19.6321C18.6086 0 17.7094 0.647167 17.3833 1.61406L8.07656 25.2811C7.84599 25.8709 7.85898 26.5152 8.11308 27.0953C8.36718 27.6753 8.83203 28.1217 9.42138 28.352C9.67031 28.4495 9.93027 28.5036 10.1964 28.5134C10.2255 28.5161 10.2549 28.5173 10.2846 28.5173H19.2568L14.3567 47.0265C14.0243 48.2903 14.7819 49.5892 16.0457 49.9217C16.2432 49.9736 16.4466 50 16.6498 50C17.4085 50 18.1241 49.6339 18.5689 49.0195L41.5946 19.3134C42.393 18.2797 42.2014 16.789 41.1676 15.9903ZM40.0498 18.1183L17.0141 47.8374C17.0056 47.8483 16.9973 47.8596 16.9893 47.8709C16.8917 48.0087 16.7104 48.0771 16.5429 48.0329C16.3205 47.9744 16.1872 47.7459 16.2453 47.5249L21.4697 27.7908C21.5472 27.4978 21.4843 27.1854 21.2995 26.9452C21.1146 26.7049 20.8287 26.5643 20.5257 26.5643H10.3513C10.2787 26.5593 10.2039 26.5609 10.1326 26.5331C9.99238 26.4783 9.92802 26.3708 9.90214 26.3117C9.87617 26.2525 9.84091 26.1323 9.89492 25.994L19.2109 2.30341C19.2185 2.28398 19.2256 2.26445 19.2319 2.24462C19.2785 2.09961 19.4203 1.95322 19.6321 1.95322H35.2779C35.3002 1.95478 35.3226 1.95556 35.3453 1.95556C35.4153 1.95556 35.4826 1.97304 35.5451 2.00732C35.6771 2.07978 35.727 2.19472 35.7452 2.25683C35.7632 2.31884 35.7827 2.44267 35.7105 2.57421L28.3302 15.9983C28.1639 16.3008 28.1696 16.6687 28.3454 16.9659C28.5212 17.2631 28.8407 17.4454 29.1859 17.4454H39.6293C39.6593 17.4481 39.6897 17.4496 39.7203 17.4496C39.7847 17.4496 39.881 17.4646 39.9737 17.5362C40.1553 17.6763 40.189 17.9382 40.0498 18.1183Z" fill="#D97706"/>
<path d="M24.0424 3.41796H21.0117C20.4724 3.41796 20.0352 3.85517 20.0352 4.39452C20.0352 4.93388 20.4724 5.37108 21.0117 5.37108H24.0424C24.5817 5.37108 25.0189 4.93388 25.0189 4.39452C25.0189 3.85517 24.5817 3.41796 24.0424 3.41796Z" fill="#D97706"/>
<path d="M26.8747 3.41796H26.8484C26.3091 3.41796 25.8718 3.85517 25.8718 4.39452C25.8718 4.93388 26.3091 5.37108 26.8484 5.37108H26.8747C27.414 5.37108 27.8512 4.93388 27.8512 4.39452C27.8512 3.85517 27.414 3.41796 26.8747 3.41796Z" fill="#D97706"/>
</svg>
